<svg width="64" height="64" viewBox="0 0 64 64" fill="none" xmlns="http://www.w3.org/2000/svg">
<path fill-rule="evenodd" clip-rule="evenodd" d="M17 14C17.5523 14 18 14.4477 18 15V47.0858L25.2929 39.7929C25.6834 39.4024 26.3166 39.4024 26.7071 39.7929C27.0976 40.1834 27.0976 40.8166 26.7071 41.2071L17 50.9142L7.29289 41.2071C6.90237 40.8166 6.90237 40.1834 7.29289 39.7929C7.68342 39.4024 8.31658 39.4024 8.70711 39.7929L16 47.0858V15C16 14.4477 16.4477 14 17 14Z" fill="black"/>
<path d="M28.1066 49H54.5C55.0523 49 55.5 48.5523 55.5 48C55.5 47.4477 55.0523 47 54.5 47H30.1066L28.1066 49Z" fill="black"/>
<path d="M33.0729 38H54.5C55.0523 38 55.5 37.5523 55.5 37C55.5 36.4477 55.0523 36 54.5 36H32.0012C32.467 36.6196 32.8243 37.2949 33.0729 38Z" fill="black"/>
<path d="M28 14C27.4477 14 27 14.4477 27 15C27 15.5523 27.4477 16 28 16H54.5C55.0523 16 55.5 15.5523 55.5 15C55.5 14.4477 55.0523 14 54.5 14H28Z" fill="black"/>
<path d="M28 25C27.4477 25 27 25.4477 27 26C27 26.5523 27.4477 27 28 27H54.5C55.0523 27 55.5 26.5523 55.5 26C55.5 25.4477 55.0523 25 54.5 25H28Z" fill="black"/>
</svg>
